<?xml version="1.0" encoding="UTF-8" standalone="no"?>
<!-- Created with Inkscape (http://www.inkscape.org/) -->

<svg
   xmlns:dc="http://purl.org/dc/elements/1.1/"
   xmlns:cc="http://creativecommons.org/ns#"
   xmlns:rdf="http://www.w3.org/1999/02/22-rdf-syntax-ns#"
   xmlns:svg="http://www.w3.org/2000/svg"
   xmlns="http://www.w3.org/2000/svg"
   xmlns:sodipodi="http://sodipodi.sourceforge.net/DTD/sodipodi-0.dtd"
   xmlns:inkscape="http://www.inkscape.org/namespaces/inkscape"
   width="72"
   height="72"
   viewBox="0 0 72.000002 72.000002"
   id="svg2"
   version="1.1"
   inkscape:version="0.91 r13725"
   sodipodi:docname="club.svg"
   inkscape:export-filename="C:\Users\Zak\Documents\designs\expo_sign\heart.png"
   inkscape:export-xdpi="90"
   inkscape:export-ydpi="90">
  <defs
     id="defs4" />
  <sodipodi:namedview
     id="base"
     pagecolor="#ffffff"
     bordercolor="#666666"
     borderopacity="1.0"
     inkscape:pageopacity="0.0"
     inkscape:pageshadow="2"
     inkscape:zoom="7.9195959"
     inkscape:cx="23.762705"
     inkscape:cy="46.245817"
     inkscape:document-units="px"
     inkscape:current-layer="layer1"
     showgrid="false"
     units="px"
     showguides="true"
     inkscape:guide-bbox="true"
     inkscape:window-width="1920"
     inkscape:window-height="1018"
     inkscape:window-x="-8"
     inkscape:window-y="-8"
     inkscape:window-maximized="1">
    <sodipodi:guide
       position="36.04982,61.93498"
       orientation="1,0"
       id="guide4152" />
    <sodipodi:guide
       position="37.198662,25.189733"
       orientation="0,1"
       id="guide4154" />
    <sodipodi:guide
       position="41.037448,18.561554"
       orientation="0,1"
       id="guide5297" />
  </sodipodi:namedview>
  <metadata
     id="metadata7">
    <rdf:RDF>
      <cc:Work
         rdf:about="">
        <dc:format>image/svg+xml</dc:format>
        <dc:type
           rdf:resource="http://purl.org/dc/dcmitype/StillImage" />
        <dc:title></dc:title>
      </cc:Work>
    </rdf:RDF>
  </metadata>
  <g
     inkscape:label="Layer 1"
     inkscape:groupmode="layer"
     id="layer1"
     transform="translate(0,-980.36218)">
    <g
       transform="matrix(0.06021602,0,0,0.06021602,5.5784708,980.15022)"
       id="g6"
       style="fill-opacity:1">
      <title
         id="title8">Layer 1</title>
      <g
         id="svg_1"
         style="fill-opacity:1">
        <g
           transform="matrix(35.9854,0,0,35.9854,-2550.64,-3750.97)"
           id="g2005"
           style="fill-opacity:1">
          <path
             inkscape:connector-curvature="0"
             style="stroke:#88a3ce;stroke-width:0;fill-opacity:1"
             id="path2007"
             d="m 93.22197,137.46973 c -3.4795,0.003 -5.30957,-3.70703 -6.269524,-7.41602 -0.960945,-3.71191 -1.051765,-7.42383 -1.051765,-7.42383 l -1.775391,-0.0176 c 0,0 -0.333008,14.84766 -7.290527,14.85352 l 16.387207,0.004 0,0 z" />
        </g>
      </g>
    </g>
    <path
       style="opacity:1;fill-opacity:1;stroke:none;stroke-width:10;stroke-linejoin:round;stroke-miterlimit:4;stroke-dasharray:none;stroke-opacity:1"
       d="m 35.498016,1020.3744 c -2.3e-5,8.0197 -7.401555,13.3631 -15.421234,13.3631 -8.019678,0 -14.5209188,-6.5012 -14.5209425,-14.5209 2.37e-5,-8.0197 6.5012645,-14.5209 14.5209425,-14.5209 8.019679,0 15.421211,7.659 15.421234,15.6787 z"
       id="circle5290"
       inkscape:connector-curvature="0"
       sodipodi:nodetypes="sssss" />
    <path
       style="opacity:1;fill-opacity:1;stroke:none;stroke-width:10;stroke-linejoin:round;stroke-miterlimit:4;stroke-dasharray:none;stroke-opacity:1"
       d="m 66.670068,1019.2798 c 3.1e-5,8.0197 -6.501225,14.521 -14.520943,14.521 -8.019718,0 -15.551252,-6.1604 -15.551221,-14.1801 2.4e-5,-8.0197 7.531542,-14.8618 15.551221,-14.8618 8.019679,0 14.520919,6.5012 14.520943,14.5209 z"
       id="circle5292"
       inkscape:connector-curvature="0"
       sodipodi:nodetypes="sssss" />
    <path
       style="opacity:1;fill-opacity:1;stroke:none;stroke-width:10;stroke-linejoin:round;stroke-miterlimit:4;stroke-dasharray:none;stroke-opacity:1"
       d="M 50.485962,995.79376 A 14.520943,14.520943 0 0 1 35.965019,1010.3147 14.520943,14.520943 0 0 1 21.444076,995.79376 14.520943,14.520943 0 0 1 35.965019,981.27282 14.520943,14.520943 0 0 1 50.485962,995.79376 Z"
       id="path4184"
       inkscape:connector-curvature="0" />
    <rect
       style="opacity:1;fill-opacity:1;stroke:none;stroke-width:10;stroke-linejoin:round;stroke-miterlimit:4;stroke-dasharray:none;stroke-opacity:1"
       id="rect5299"
       width="17.5"
       height="17.5"
       x="28.214285"
       y="1003.7908" />
  </g>
</svg>
