<?xml version="1.0" encoding="UTF-8" standalone="no"?>
<!-- Created with Inkscape (http://www.inkscape.org/) -->

<svg
   xmlns:dc="http://purl.org/dc/elements/1.1/"
   xmlns:cc="http://creativecommons.org/ns#"
   xmlns:rdf="http://www.w3.org/1999/02/22-rdf-syntax-ns#"
   xmlns:svg="http://www.w3.org/2000/svg"
   xmlns="http://www.w3.org/2000/svg"
   xmlns:sodipodi="http://sodipodi.sourceforge.net/DTD/sodipodi-0.dtd"
   xmlns:inkscape="http://www.inkscape.org/namespaces/inkscape"
   width="320"
   height="350"
   viewBox="0 0 320.00001 349.99998"
   id="svg8025"
   version="1.1"
   inkscape:version="0.91 r13725"
   sodipodi:docname="magic_header_mobile.svg"
   inkscape:export-filename="C:\Users\Zak\Documents\designs\expo_sign\magic_header_mobile.png"
   inkscape:export-xdpi="90"
   inkscape:export-ydpi="90">
  <defs
     id="defs8027" />
  <sodipodi:namedview
     id="base"
     pagecolor="#ffffff"
     bordercolor="#666666"
     borderopacity="1.0"
     inkscape:pageopacity="0.0"
     inkscape:pageshadow="2"
     inkscape:zoom="1.979899"
     inkscape:cx="105.12423"
     inkscape:cy="202.42705"
     inkscape:document-units="px"
     inkscape:current-layer="layer1"
     showgrid="false"
     units="px"
     showguides="true"
     inkscape:guide-bbox="true"
     inkscape:window-width="1920"
     inkscape:window-height="1018"
     inkscape:window-x="-8"
     inkscape:window-y="-8"
     inkscape:window-maximized="1">
    <sodipodi:guide
       position="159.95135,394.49612"
       orientation="1,0"
       id="guide8637" />
  </sodipodi:namedview>
  <metadata
     id="metadata8030">
    <rdf:RDF>
      <cc:Work
         rdf:about="">
        <dc:format>image/svg+xml</dc:format>
        <dc:type
           rdf:resource="http://purl.org/dc/dcmitype/StillImage" />
        <dc:title></dc:title>
      </cc:Work>
    </rdf:RDF>
  </metadata>
  <g
     inkscape:label="Layer 1"
     inkscape:groupmode="layer"
     id="layer1"
     transform="translate(0,-702.36239)">
    <g
       transform="translate(40.678364,727.75938)"
       style="font-style:normal;font-variant:normal;font-weight:bold;font-stretch:normal;font-size:75.47566223px;line-height:125%;font-family:Aharoni;-inkscape-font-specification:'Aharoni, Bold';text-align:center;letter-spacing:0px;word-spacing:0px;writing-mode:lr-tb;text-anchor:middle;fill:#ffc102;fill-opacity:1;stroke:none;stroke-width:1px;stroke-linecap:butt;stroke-linejoin:miter;stroke-opacity:1"
       id="flowRoot4687">
      <path
         d="m 77.575232,115.52958 -13.08294,0 -3.722188,-28.966729 -12.161606,28.966729 -5.196322,0 -11.608806,-28.966729 -4.274988,28.966729 -13.009233,0 8.549977,-50.304819 12.898673,0 10.208378,26.829239 10.798032,-26.829239 13.009233,0 7.59179,50.304819 z"
         style=""
         id="path8097" />
      <path
         d="m 123.31024,115.52958 -12.0879,0 0,-3.79589 q -1.73211,2.17435 -3.50107,3.16939 -3.09568,1.73211 -7.03899,1.73211 -6.375626,0 -11.350829,-4.38555 -5.933389,-5.23318 -5.933389,-13.856863 0,-8.771098 6.080803,-14.004274 4.827789,-4.164428 11.092855,-4.164428 3.64849,0 6.85473,1.547841 1.84266,0.88448 3.79589,2.911414 l 0,-3.353655 12.0879,0 0,34.199905 z M 111.59088,98.42963 q 0,-3.243095 -2.28491,-5.491149 -2.28491,-2.284908 -5.52801,-2.284908 -3.61162,0 -5.933385,2.727148 -1.879521,2.211201 -1.879521,5.048909 0,2.83771 1.879521,5.04891 2.284905,2.72715 5.933385,2.72715 3.27995,0 5.52801,-2.24806 2.28491,-2.24805 2.28491,-5.528 z"
         style=""
         id="path8099" />
      <path
         d="m 169.92972,113.17097 q 0,4.49611 -0.6265,7.26011 -0.99504,4.4224 -5.15947,7.92347 -5.27003,4.4224 -14.00428,4.4224 -9.13963,0 -14.55707,-4.82779 -3.61163,-3.20624 -4.60667,-6.70731 -0.11056,-0.36853 -0.29482,-1.54784 l 13.59888,0 q 0.58966,1.69526 1.5847,2.43232 1.62154,1.21617 4.12757,1.21617 4.20128,0 6.44934,-2.98513 1.40042,-1.87952 1.40042,-5.38059 l 0,-3.24309 q -2.17434,1.99008 -3.64848,2.80085 -3.05882,1.69526 -7.22325,1.69526 -5.23318,0 -9.36075,-2.6903 -4.23814,-2.764 -6.08081,-7.55493 -1.25301,-3.2431 -1.25301,-7.038993 0,-8.402564 5.34373,-13.672593 4.97521,-4.901496 11.97734,-4.901496 3.72219,0 6.63361,1.510988 1.7321,0.921333 3.61162,3.021974 l 0,-3.574775 12.0879,0 0,31.841295 z m -11.49824,-14.8519 q 0,-3.279948 -2.24806,-5.638563 -2.24805,-2.358614 -5.528,-2.358614 -3.64848,0 -5.97024,2.800855 -1.84267,2.248054 -1.84267,5.196322 0,3.27995 2.24806,5.63856 2.2849,2.32176 5.56485,2.32176 3.2431,0 5.49115,-2.32176 2.28491,-2.35861 2.28491,-5.63856 z"
         style=""
         id="path8101" />
      <path
         d="m 191.0467,68.173029 q 0,2.874561 -1.99008,4.864642 -1.95323,1.953228 -4.82779,1.953228 -2.83771,0 -4.82779,-1.990081 -1.95323,-1.990081 -1.95323,-4.827789 0,-2.837708 1.95323,-4.790935 1.99008,-1.990081 4.82779,-1.990081 2.83771,0 4.82779,1.990081 1.99008,1.953227 1.99008,4.790935 z m -0.77392,47.356551 -12.0879,0 0,-34.199905 12.0879,0 0,34.199905 z"
         style=""
         id="path8103" />
      <path
         d="m 224.36213,114.79252 q -3.75904,1.87952 -7.88662,1.87952 -9.36075,0 -14.8519,-6.33878 -4.4224,-5.12261 -4.4224,-11.866777 0,-6.781016 4.4224,-11.866779 5.49115,-6.338776 14.8519,-6.338776 4.20128,0 7.88662,1.916374 l 0,10.282085 q -3.20624,-2.248054 -6.26507,-2.248054 -3.61163,0 -5.97024,2.321761 -2.35862,2.321761 -2.35862,5.933389 0,3.611627 2.35862,5.933387 2.35861,2.32176 5.97024,2.32176 3.02197,0 6.26507,-2.2112 l 0,10.28209 z"
         style=""
         id="path8105" />
    </g>
    <path
       sodipodi:type="star"
       style="opacity:1;fill:#ffffff;fill-opacity:1;stroke:none;stroke-width:10;stroke-linejoin:round;stroke-miterlimit:4;stroke-dasharray:none;stroke-opacity:1"
       id="path6066"
       sodipodi:sides="4"
       sodipodi:cx="446.48743"
       sodipodi:cy="133.96234"
       sodipodi:r1="80.45787"
       sodipodi:r2="22.528204"
       sodipodi:arg1="0.67866249"
       sodipodi:arg2="1.4640607"
       inkscape:flatsided="false"
       inkscape:rounded="0.04"
       inkscape:randomized="0"
       d="m 509.11688,184.46997 c -1.66895,2.06949 -57.58598,-28.39086 -60.22945,-28.10763 -2.64348,0.28323 -50.83813,41.89841 -52.90763,40.22946 -2.06949,-1.66895 28.39086,-57.58598 28.10763,-60.22946 -0.28323,-2.64348 -41.89841,-50.838128 -40.22946,-52.907624 1.66895,-2.069496 57.58598,28.390854 60.22946,28.107624 2.64348,-0.28323 50.83813,-41.898403 52.90762,-40.229454 2.0695,1.668948 -28.39085,57.585974 -28.10762,60.229454 0.28323,2.64348 41.8984,50.83813 40.22945,52.90763 z"
       inkscape:transform-center-x="0.95908501"
       inkscape:transform-center-y="0.50948539"
       transform="matrix(0.12799719,-0.10328513,0.10328513,0.12799719,-15.288307,802.91555)" />
    <path
       sodipodi:type="star"
       style="opacity:1;fill:#ffba03;fill-opacity:1;stroke:none;stroke-width:10;stroke-linejoin:round;stroke-miterlimit:4;stroke-dasharray:none;stroke-opacity:1"
       id="path6066-6"
       sodipodi:sides="4"
       sodipodi:cx="446.48743"
       sodipodi:cy="133.96234"
       sodipodi:r1="80.45787"
       sodipodi:r2="22.528204"
       sodipodi:arg1="0.67866249"
       sodipodi:arg2="1.4640607"
       inkscape:flatsided="false"
       inkscape:rounded="0.04"
       inkscape:randomized="0"
       d="m 509.11688,184.46997 c -1.66895,2.06949 -57.58598,-28.39086 -60.22945,-28.10763 -2.64348,0.28323 -50.83813,41.89841 -52.90763,40.22946 -2.06949,-1.66895 28.39086,-57.58598 28.10763,-60.22946 -0.28323,-2.64348 -41.89841,-50.838128 -40.22946,-52.907624 1.66895,-2.069496 57.58598,28.390854 60.22946,28.107624 2.64348,-0.28323 50.83813,-41.898403 52.90762,-40.229454 2.0695,1.668948 -28.39085,57.585974 -28.10762,60.229454 0.28323,2.64348 41.8984,50.83813 40.22945,52.90763 z"
       inkscape:transform-center-x="0.66714431"
       inkscape:transform-center-y="0.35438678"
       transform="matrix(0.0890353,-0.07184549,0.07184549,0.0890353,39.349867,784.4301)" />
    <g
       transform="matrix(0.26564016,0,0,0.26564016,78.513722,812.8552)"
       style="font-style:normal;font-variant:normal;font-weight:bold;font-stretch:normal;font-size:283.9125061px;line-height:125%;font-family:Aharoni;-inkscape-font-specification:'Aharoni, Bold';text-align:center;letter-spacing:0px;word-spacing:0px;writing-mode:lr-tb;text-anchor:middle;fill:#ffc102;fill-opacity:1;stroke:none;stroke-width:1px;stroke-linecap:butt;stroke-linejoin:miter;stroke-opacity:1"
       id="flowRoot4687-9">
      <path
         d="m 144.72878,428.07285 q -24.12147,9.56541 -44.63859,9.56541 -35.766318,0 -64.046666,-22.87381 Q -5.543232e-5,385.5137 -5.543232e-5,338.51842 q 0,-47.13391 36.04357943232,-76.38466 28.280348,-22.87381 64.462556,-22.87381 19.68534,0 44.2227,9.56541 l 0,58.91739 q -6.93146,-8.45638 -14.14017,-12.75388 -13.16977,-7.90187 -28.28035,-7.90187 -19.130823,0 -33.270997,11.50622 -17.883161,14.55606 -17.883161,39.9252 0,25.23051 17.883161,39.78657 14.140174,11.50622 33.270997,11.50622 15.11058,0 28.28035,-7.90187 7.07008,-4.15887 14.14017,-12.75388 l 0,58.91739 z"
         style=""
         id="path8108" />
      <path
         d="m 316.62893,432.50899 -45.47036,0 0,-14.27881 q -6.51557,8.17912 -13.16977,11.92211 -11.64485,6.51557 -26.47817,6.51557 -23.98284,0 -42.69778,-16.49687 -22.31929,-19.68534 -22.31929,-52.12456 0,-32.99374 22.87381,-52.67908 18.16042,-15.66509 41.72738,-15.66509 13.72428,0 25.78502,5.82242 6.93146,3.3271 14.2788,10.9517 l 0,-12.61525 45.47036,0 0,128.64786 z m -44.08407,-64.32393 q 0,-12.19937 -8.595,-20.65575 -8.59501,-8.595 -20.79438,-8.595 -13.58565,0 -22.31929,10.25855 -7.07009,8.31775 -7.07009,18.9922 0,10.67444 7.07009,18.99219 8.59501,10.25856 22.31929,10.25856 12.338,0 20.79438,-8.45638 8.595,-8.45638 8.595,-20.79437 z"
         style=""
         id="path8110" />
      <path
         d="m 444.445,345.86576 q -9.56541,-4.57476 -19.40808,-4.57476 -22.45792,0 -29.11212,18.29905 -2.49533,6.6542 -2.49533,17.88316 l 0,55.03578 -45.47036,0 0,-128.64786 45.47036,0 0,21.07163 q 7.20872,-11.22896 15.52647,-16.21961 11.22896,-6.6542 26.6168,-6.6542 3.60436,0 8.87226,0.41589 l 0,43.39092 z"
         style=""
         id="path8112" />
      <path
         d="m 609.96823,432.50899 -45.47036,0 0,-14.27881 q -6.51557,8.17912 -13.16977,11.92211 -11.64485,6.51557 -26.47817,6.51557 -23.98285,0 -42.69778,-16.49687 -22.3193,-19.68534 -22.3193,-52.12456 0,-32.99374 22.87382,-52.67908 18.16041,-15.66509 41.72737,-15.66509 13.72429,0 25.78502,5.82242 6.93146,3.3271 14.27881,10.9517 l 0,-92.18838 45.47036,0 0,208.22099 z m -44.08407,-64.32393 q 0,-12.19937 -8.59501,-20.65575 -8.59501,-8.595 -20.79437,-8.595 -13.58566,0 -22.3193,10.25855 -7.07008,8.31775 -7.07008,18.9922 0,10.67444 7.07008,18.99219 8.59501,10.25856 22.3193,10.25856 12.33799,0 20.79437,-8.45638 8.59501,-8.45638 8.59501,-20.79437 z"
         style=""
         id="path8114" />
    </g>
    <rect
       style="display:inline;opacity:1;fill:#ffffff;fill-opacity:1;stroke:#3a0148;stroke-width:2.65640211;stroke-linejoin:round;stroke-miterlimit:4;stroke-dasharray:none;stroke-opacity:1"
       id="rect5424"
       width="30.858767"
       height="44.812298"
       x="-230.226"
       y="721.87207"
       transform="matrix(0.89355824,-0.4489473,0.4489473,0.89355824,0,0)" />
    <g
       transform="matrix(0.01242138,-0.00650718,0.00650718,0.01242138,131.67818,756.40708)"
       id="g6"
       style="display:inline;fill:#8c28a2;fill-opacity:1">
      <title
         id="title8">Layer 1</title>
      <g
         id="svg_1"
         style="fill:#8c28a2;fill-opacity:1"
         transform="matrix(1.0198778,0,0,1.0198778,-24.44701,-7.6131752)">
        <g
           transform="matrix(35.9854,0,0,35.9854,-2550.64,-3750.97)"
           id="g2005"
           style="fill:#8c28a2;fill-opacity:1">
          <path
             inkscape:connector-curvature="0"
             style="fill:#8c28a2;fill-opacity:1;stroke:#88a3ce;stroke-width:0"
             id="path2007"
             d="m 93.22197,137.46973 c -3.4795,0.003 -5.30957,-3.70703 -6.269524,-7.41602 -0.960945,-3.71191 -1.051765,-7.42383 -1.051765,-7.42383 l -1.775391,-0.0176 c 0,0 -0.333008,14.84766 -7.290527,14.85352 l 16.387207,0.004 0,0 z" />
        </g>
        <path
           style="fill:#8c28a2;fill-opacity:1;stroke:#88a3ce;stroke-width:0"
           inkscape:connector-curvature="0"
           id="path2009"
           d="M 1015.8206,661.76733 C 1014.731,401.15457 624.5498,212.12601 509.98682,5.877621 395.45944,212.12601 5.278094,401.15457 4.171395,661.76733 3.661835,784.83435 117.41661,884.53217 257.10559,884.53217 c 139.65414,0 252.88123,-99.69782 252.88123,-222.76484 0,123.06702 113.26306,222.76484 252.95202,222.76484 139.68933,0 252.88176,-99.69782 252.88176,-222.76484 l 0,0 z" />
      </g>
    </g>
    <path
       style="display:inline;fill:#edd4f1;fill-opacity:1;fill-rule:evenodd;stroke:none;stroke-width:1px;stroke-linecap:butt;stroke-linejoin:miter;stroke-opacity:1"
       d="m 157.4835,760.4172 -10.68429,22.5485 -7.69321,3.69136 15.91086,-31.08694 z"
       id="path5494"
       inkscape:connector-curvature="0"
       sodipodi:nodetypes="ccccc" />
    <rect
       style="display:inline;opacity:1;fill:#ffffff;fill-opacity:1;stroke:#3a0148;stroke-width:2.65640211;stroke-linejoin:round;stroke-miterlimit:4;stroke-dasharray:none;stroke-opacity:1"
       id="rect5424-6"
       width="30.858767"
       height="44.812298"
       x="471.36261"
       y="597.5625"
       transform="matrix(0.90218309,0.43135331,-0.43135331,0.90218309,0,0)" />
    <g
       transform="matrix(0.03344726,0.01623427,-0.01623427,0.03344726,164.12274,756.46807)"
       id="g4"
       style="display:inline;fill:#f52f35;fill-opacity:1;stroke:none">
      <title
         id="title6">Layer 1</title>
      <g
         id="layer1-0"
         style="fill:#f52f35;fill-opacity:1;stroke:none">
        <path
           style="fill:#f52f35;fill-opacity:1;stroke:none;stroke-width:18.70000076;stroke-miterlimit:4"
           inkscape:connector-curvature="0"
           stroke-miterlimit="4"
           id="path7"
           d="m 222.41571,22.145874 c -66.24001,0 -119.99995,53.76001 -119.99995,119.999996 0,134.75553 135.93315,170.08728 228.56245,303.30805 87.57422,-132.40338 228.5625,-172.85459 228.5625,-303.30805 0,-66.239986 -53.75989,-119.999996 -120,-119.999996 -48.04791,0 -89.40161,28.370422 -108.5625,69.1875 -19.1608,-40.817078 -60.5145,-69.1875 -108.5625,-69.1875 z" />
      </g>
    </g>
    <g
       transform="translate(-378.64697,897.13544)"
       style="font-style:normal;font-variant:normal;font-weight:bold;font-stretch:normal;font-size:75.04670715px;line-height:125%;font-family:Aharoni;-inkscape-font-specification:'Aharoni, Bold';text-align:center;letter-spacing:0px;word-spacing:0px;writing-mode:lr-tb;text-anchor:middle;fill:#ffc102;fill-opacity:1;stroke:none;stroke-width:1px;stroke-linecap:butt;stroke-linejoin:miter;stroke-opacity:1"
       id="flowRoot4687-1">
      <path
         d="m 490.79155,76.111199 -10.77331,0 0,39.135681 -13.00858,0 0,-39.135681 -10.59009,0 0,-10.883239 34.37198,0 0,10.883239 z"
         style=""
         id="path8117" />
      <path
         d="m 520.83955,92.344446 q -2.52843,-1.209248 -5.13015,-1.209248 -5.93631,0 -7.69522,4.836994 -0.65959,1.758908 -0.65959,4.727068 l 0,14.54762 -12.0192,0 0,-34.005535 12.0192,0 0,5.569872 q 1.90548,-2.968156 4.10412,-4.287336 2.96815,-1.758907 7.03563,-1.758907 0.95274,0 2.34521,0.109932 l 0,11.46954 z"
         style=""
         id="path8119" />
      <path
         d="m 539.01492,68.159472 q 0,2.858224 -1.97877,4.836995 -1.94213,1.942127 -4.80035,1.942127 -2.82158,0 -4.80035,-1.978771 -1.94213,-1.97877 -1.94213,-4.800351 0,-2.82158 1.94213,-4.763707 1.97877,-1.97877 4.80035,-1.97877 2.82158,0 4.80035,1.97877 1.97877,1.942127 1.97877,4.763707 z m -0.76952,47.087408 -12.0192,0 0,-34.005535 12.0192,0 0,34.005535 z"
         style=""
         id="path8121" />
      <path
         d="m 572.141,114.51401 q -3.73768,1.86883 -7.84179,1.86883 -9.30755,0 -14.76749,-6.30275 -4.39727,-5.0935 -4.39727,-11.799332 0,-6.742478 4.39727,-11.799336 5.45994,-6.302751 14.76749,-6.302751 4.1774,0 7.84179,1.905483 l 0,10.223648 q -3.18802,-2.235278 -6.22946,-2.235278 -3.5911,0 -5.93631,2.308566 -2.34521,2.308566 -2.34521,5.899668 0,3.591102 2.34521,5.899672 2.34521,2.30856 5.93631,2.30856 3.0048,0 6.22946,-2.19863 l 0,10.22365 z"
         style=""
         id="path8123" />
      <path
         d="m 621.1339,115.24688 -16.85619,0 -13.22845,-13.85139 0,13.85139 -12.0192,0 0,-55.039134 12.0192,0 0,33.272661 12.56886,-12.239062 16.48975,0 -17.03941,15.683589 18.06544,18.321946 z"
         style=""
         id="path8125" />
    </g>
    <path
       sodipodi:type="star"
       style="opacity:1;fill:#ffffff;fill-opacity:1;stroke:none;stroke-width:10;stroke-linejoin:round;stroke-miterlimit:4;stroke-dasharray:none;stroke-opacity:1"
       id="path6066-0"
       sodipodi:sides="4"
       sodipodi:cx="446.48743"
       sodipodi:cy="133.96234"
       sodipodi:r1="80.45787"
       sodipodi:r2="22.528204"
       sodipodi:arg1="0.67866249"
       sodipodi:arg2="1.4640607"
       inkscape:flatsided="false"
       inkscape:rounded="0.04"
       inkscape:randomized="0"
       d="m 509.11688,184.46997 c -1.66895,2.06949 -57.58598,-28.39086 -60.22945,-28.10763 -2.64348,0.28323 -50.83813,41.89841 -52.90763,40.22946 -2.06949,-1.66895 28.39086,-57.58598 28.10763,-60.22946 -0.28323,-2.64348 -41.89841,-50.838128 -40.22946,-52.907624 1.66895,-2.069496 57.58598,28.390854 60.22946,28.107624 2.64348,-0.28323 50.83813,-41.898403 52.90762,-40.229454 2.0695,1.668948 -28.39085,57.585974 -28.10762,60.229454 0.28323,2.64348 41.8984,50.83813 40.22945,52.90763 z"
       inkscape:transform-center-x="0.95364331"
       inkscape:transform-center-y="0.50659648"
       transform="matrix(0.12726975,-0.10269812,0.10269812,0.12726975,187.00234,995.32427)" />
    <path
       sodipodi:type="star"
       style="opacity:1;fill:#ffba03;fill-opacity:1;stroke:none;stroke-width:10;stroke-linejoin:round;stroke-miterlimit:4;stroke-dasharray:none;stroke-opacity:1"
       id="path6066-6-1"
       sodipodi:sides="4"
       sodipodi:cx="446.48743"
       sodipodi:cy="133.96234"
       sodipodi:r1="80.45787"
       sodipodi:r2="22.528204"
       sodipodi:arg1="0.67866249"
       sodipodi:arg2="1.4640607"
       inkscape:flatsided="false"
       inkscape:rounded="0.04"
       inkscape:randomized="0"
       d="m 509.11688,184.46997 c -1.66895,2.06949 -57.58598,-28.39086 -60.22945,-28.10763 -2.64348,0.28323 -50.83813,41.89841 -52.90763,40.22946 -2.06949,-1.66895 28.39086,-57.58598 28.10763,-60.22946 -0.28323,-2.64348 -41.89841,-50.838128 -40.22946,-52.907624 1.66895,-2.069496 57.58598,28.390854 60.22946,28.107624 2.64348,-0.28323 50.83813,-41.898403 52.90762,-40.229454 2.0695,1.668948 -28.39085,57.585974 -28.10762,60.229454 0.28323,2.64348 41.8984,50.83813 40.22945,52.90763 z"
       inkscape:transform-center-x="0.66334597"
       inkscape:transform-center-y="0.35239135"
       transform="matrix(0.08852929,-0.07143718,0.07143718,0.08852929,216.38939,1024.3975)" />
    <path
       sodipodi:type="star"
       style="opacity:1;fill:#ffffff;fill-opacity:1;stroke:none;stroke-width:10;stroke-linejoin:round;stroke-miterlimit:4;stroke-dasharray:none;stroke-opacity:1"
       id="path6066-6-7"
       sodipodi:sides="4"
       sodipodi:cx="446.48743"
       sodipodi:cy="133.96234"
       sodipodi:r1="80.45787"
       sodipodi:r2="22.528204"
       sodipodi:arg1="0.67866249"
       sodipodi:arg2="1.4640607"
       inkscape:flatsided="false"
       inkscape:rounded="0.04"
       inkscape:randomized="0"
       d="m 509.11688,184.46997 c -1.66895,2.06949 -57.58598,-28.39086 -60.22945,-28.10763 -2.64348,0.28323 -50.83813,41.89841 -52.90763,40.22946 -2.06949,-1.66895 28.39086,-57.58598 28.10763,-60.22946 -0.28323,-2.64348 -41.89841,-50.838128 -40.22946,-52.907624 1.66895,-2.069496 57.58598,28.390854 60.22946,28.107624 2.64348,-0.28323 50.83813,-41.898403 52.90762,-40.229454 2.0695,1.668948 -28.39085,57.585974 -28.10762,60.229454 0.28323,2.64348 41.8984,50.83813 40.22945,52.90763 z"
       inkscape:transform-center-x="0.40335793"
       inkscape:transform-center-y="0.21427517"
       transform="matrix(0.05383066,-0.04343772,0.04343772,0.05383066,212.86622,1005.5477)" />
  </g>
</svg>
