<?xml version="1.0" encoding="UTF-8" standalone="no"?>
<!-- Created with Inkscape (http://www.inkscape.org/) -->

<svg
   xmlns:dc="http://purl.org/dc/elements/1.1/"
   xmlns:cc="http://creativecommons.org/ns#"
   xmlns:rdf="http://www.w3.org/1999/02/22-rdf-syntax-ns#"
   xmlns:svg="http://www.w3.org/2000/svg"
   xmlns="http://www.w3.org/2000/svg"
   xmlns:sodipodi="http://sodipodi.sourceforge.net/DTD/sodipodi-0.dtd"
   xmlns:inkscape="http://www.inkscape.org/namespaces/inkscape"
   width="700"
   height="150"
   viewBox="0 0 700 150"
   id="svg6109"
   version="1.1"
   inkscape:version="0.91 r13725"
   sodipodi:docname="magic_header.svg"
   inkscape:export-filename="C:\Users\Zak\Documents\designs\expo_sign\magic_header.png"
   inkscape:export-xdpi="90"
   inkscape:export-ydpi="90">
  <defs
     id="defs6111" />
  <sodipodi:namedview
     id="base"
     pagecolor="#ffffff"
     bordercolor="#666666"
     borderopacity="1.0"
     inkscape:pageopacity="0.0"
     inkscape:pageshadow="2"
     inkscape:zoom="1.4"
     inkscape:cx="418.32447"
     inkscape:cy="62.659677"
     inkscape:document-units="px"
     inkscape:current-layer="layer1"
     showgrid="false"
     units="px"
     width="990px"
     showguides="true"
     inkscape:guide-bbox="true"
     inkscape:window-width="1920"
     inkscape:window-height="1018"
     inkscape:window-x="-8"
     inkscape:window-y="-8"
     inkscape:window-maximized="1">
    <sodipodi:guide
       position="269.71073,37.88072"
       orientation="0,1"
       id="guide7947" />
  </sodipodi:namedview>
  <metadata
     id="metadata6114">
    <rdf:RDF>
      <cc:Work
         rdf:about="">
        <dc:format>image/svg+xml</dc:format>
        <dc:type
           rdf:resource="http://purl.org/dc/dcmitype/StillImage" />
        <dc:title />
      </cc:Work>
    </rdf:RDF>
  </metadata>
  <g
     inkscape:label="Layer 1"
     inkscape:groupmode="layer"
     id="layer1"
     transform="translate(0,-902.3622)">
    <g
       transform="matrix(0.41930841,0,0,0.41930841,-73.726646,900.49226)"
       style="font-style:normal;font-variant:normal;font-weight:bold;font-stretch:normal;font-size:180.00035095px;line-height:125%;font-family:Aharoni;-inkscape-font-specification:'Aharoni, Bold';text-align:center;letter-spacing:0px;word-spacing:0px;writing-mode:lr-tb;text-anchor:middle;fill:#ffc102;fill-opacity:1;stroke:none;stroke-width:1px;stroke-linecap:butt;stroke-linejoin:miter;stroke-opacity:1"
       id="flowRoot4687">
      <path
         d="m 394.16973,299.25081 -31.20123,0 -8.87698,-69.08217 -29.00396,69.08217 -12.3926,0 -27.6856,-69.08217 -10.19533,69.08217 -31.02545,0 20.39066,-119.97094 30.76178,0 24.34575,63.9845 25.752,-63.9845 31.02545,0 18.10551,119.97094 z"
         style=""
         id="path8127" />
      <path
         d="m 503.2422,299.25081 -28.82818,0 0,-9.05275 q -4.13086,5.18556 -8.34962,7.55861 -7.38283,4.13086 -16.78714,4.13086 -15.20511,0 -27.07037,-10.459 -14.15042,-12.48049 -14.15042,-33.04694 0,-20.91801 14.50198,-33.3985 11.5137,-9.93166 26.45513,-9.93166 8.70119,0 16.34769,3.69141 4.39454,2.10938 9.05275,6.94337 l 0,-7.99806 28.82818,0 0,81.56266 z m -27.94927,-40.78133 q 0,-7.73439 -5.44923,-13.09573 -5.44923,-5.44923 -13.18362,-5.44923 -8.6133,0 -14.15042,6.50392 -4.48243,5.27345 -4.48243,12.04104 0,6.76759 4.48243,12.04104 5.44923,6.50392 14.15042,6.50392 7.82228,0 13.18362,-5.36134 5.44923,-5.36134 5.44923,-13.18362 z"
         style=""
         id="path8129" />
      <path
         d="m 614.42407,293.6258 q 0,10.72268 -1.49414,17.31449 -2.37305,10.54689 -12.30471,18.89652 -12.56839,10.54689 -33.3985,10.54689 -21.79692,0 -34.71687,-11.51369 -8.6133,-7.6465 -10.98635,-15.99613 -0.26367,-0.8789 -0.70312,-3.69141 l 32.4317,0 q 1.40625,4.04298 3.7793,5.80079 3.8672,2.9004 9.84377,2.9004 10.01955,0 15.38089,-7.11916 3.33985,-4.48243 3.33985,-12.83205 l 0,-7.73439 q -5.18555,4.7461 -8.70119,6.6797 -7.29493,4.04298 -17.22659,4.04298 -12.4805,0 -22.32427,-6.41603 -10.10744,-6.59181 -14.50198,-18.01762 -2.98828,-7.73439 -2.98828,-16.78714 0,-20.0391 12.74416,-32.60748 11.86526,-11.68948 28.56451,-11.68948 8.87697,0 15.82034,3.60352 4.13087,2.19727 8.6133,7.20705 l 0,-8.52541 28.82818,0 0,75.93765 z m -27.42193,-35.41999 q 0,-7.82228 -5.36133,-13.44729 -5.36134,-5.62501 -13.18362,-5.62501 -8.70119,0 -14.23831,6.6797 -4.39454,5.36134 -4.39454,12.3926 0,7.82228 5.36134,13.44729 5.44923,5.53712 13.27151,5.53712 7.73439,0 13.09573,-5.53712 5.44922,-5.62501 5.44922,-13.44729 z"
         style=""
         id="path8131" />
      <path
         d="m 664.7855,186.31114 q 0,6.85548 -4.74611,11.60158 -4.65821,4.65821 -11.51369,4.65821 -6.76759,0 -11.5137,-4.7461 -4.65821,-4.7461 -4.65821,-11.51369 0,-6.76759 4.65821,-11.42581 4.74611,-4.7461 11.5137,-4.7461 6.76759,0 11.51369,4.7461 4.74611,4.65822 4.74611,11.42581 z m -1.84571,112.93967 -28.82818,0 0,-81.56266 28.82818,0 0,81.56266 z"
         style=""
         id="path8133" />
      <path
         d="m 744.23877,297.49299 q -8.96486,4.48244 -18.80863,4.48244 -22.32426,0 -35.41999,-15.11722 -10.54689,-12.21682 -10.54689,-28.30084 0,-16.1719 10.54689,-28.30083 13.09573,-15.11722 35.41999,-15.11722 10.01955,0 18.80863,4.57032 l 0,24.52153 q -7.6465,-5.36134 -14.94143,-5.36134 -8.6133,0 -14.23831,5.53712 -5.62501,5.53712 -5.62501,14.15042 0,8.6133 5.62501,14.15042 5.62501,5.53712 14.23831,5.53712 7.20704,0 14.94143,-5.27345 l 0,24.52153 z"
         style=""
         id="path8135" />
    </g>
    <path
       sodipodi:type="star"
       style="opacity:1;fill:#ffffff;fill-opacity:1;stroke:none;stroke-width:10;stroke-linejoin:round;stroke-miterlimit:4;stroke-dasharray:none;stroke-opacity:1"
       id="path6066"
       sodipodi:sides="4"
       sodipodi:cx="446.48743"
       sodipodi:cy="133.96234"
       sodipodi:r1="80.45787"
       sodipodi:r2="22.528204"
       sodipodi:arg1="0.67866249"
       sodipodi:arg2="1.4640607"
       inkscape:flatsided="false"
       inkscape:rounded="0.04"
       inkscape:randomized="0"
       d="m 509.11688,184.46997 c -1.66895,2.06949 -57.58598,-28.39086 -60.22945,-28.10763 -2.64348,0.28323 -50.83813,41.89841 -52.90763,40.22946 -2.06949,-1.66895 28.39086,-57.58598 28.10763,-60.22946 -0.28323,-2.64348 -41.89841,-50.838128 -40.22946,-52.907624 1.66895,-2.069496 57.58598,28.390854 60.22946,28.107624 2.64348,-0.28323 50.83813,-41.898403 52.90762,-40.229454 2.0695,1.668948 -28.39085,57.585974 -28.10762,60.229454 0.28323,2.64348 41.8984,50.83813 40.22945,52.90763 z"
       inkscape:transform-center-x="0.95908501"
       inkscape:transform-center-y="0.50948539"
       transform="matrix(0.12799719,-0.10328513,0.10328513,0.12799719,-43.775728,985.59764)" />
    <path
       sodipodi:type="star"
       style="opacity:1;fill:#ffba03;fill-opacity:1;stroke:none;stroke-width:10;stroke-linejoin:round;stroke-miterlimit:4;stroke-dasharray:none;stroke-opacity:1"
       id="path6066-6"
       sodipodi:sides="4"
       sodipodi:cx="446.48743"
       sodipodi:cy="133.96234"
       sodipodi:r1="80.45787"
       sodipodi:r2="22.528204"
       sodipodi:arg1="0.67866249"
       sodipodi:arg2="1.4640607"
       inkscape:flatsided="false"
       inkscape:rounded="0.04"
       inkscape:randomized="0"
       d="m 509.11688,184.46997 c -1.66895,2.06949 -57.58598,-28.39086 -60.22945,-28.10763 -2.64348,0.28323 -50.83813,41.89841 -52.90763,40.22946 -2.06949,-1.66895 28.39086,-57.58598 28.10763,-60.22946 -0.28323,-2.64348 -41.89841,-50.838128 -40.22946,-52.907624 1.66895,-2.069496 57.58598,28.390854 60.22946,28.107624 2.64348,-0.28323 50.83813,-41.898403 52.90762,-40.229454 2.0695,1.668948 -28.39085,57.585974 -28.10762,60.229454 0.28323,2.64348 41.8984,50.83813 40.22945,52.90763 z"
       inkscape:transform-center-x="0.66714431"
       inkscape:transform-center-y="0.35438678"
       transform="matrix(0.0890353,-0.07184549,0.07184549,0.0890353,10.862438,967.11219)" />
  </g>
  <g
     inkscape:groupmode="layer"
     id="layer10"
     inkscape:label="card">
    <g
       transform="matrix(0.26564016,0,0,0.26564016,273.68843,8.0793416)"
       style="font-style:normal;font-variant:normal;font-weight:bold;font-stretch:normal;font-size:283.9125061px;line-height:125%;font-family:Aharoni;-inkscape-font-specification:'Aharoni, Bold';text-align:center;letter-spacing:0px;word-spacing:0px;writing-mode:lr-tb;text-anchor:middle;fill:#ffc102;fill-opacity:1;stroke:none;stroke-width:1px;stroke-linecap:butt;stroke-linejoin:miter;stroke-opacity:1"
       id="flowRoot4687-9">
      <path
         d="m 144.72878,428.07285 q -24.12147,9.56541 -44.63859,9.56541 -35.766318,0 -64.046666,-22.87381 Q -5.543232e-5,385.5137 -5.543232e-5,338.51842 q 0,-47.13391 36.04357943232,-76.38466 28.280348,-22.87381 64.462556,-22.87381 19.68534,0 44.2227,9.56541 l 0,58.91739 q -6.93146,-8.45638 -14.14017,-12.75388 -13.16977,-7.90187 -28.28035,-7.90187 -19.130823,0 -33.270997,11.50622 -17.883161,14.55606 -17.883161,39.9252 0,25.23051 17.883161,39.78657 14.140174,11.50622 33.270997,11.50622 15.11058,0 28.28035,-7.90187 7.07008,-4.15887 14.14017,-12.75388 l 0,58.91739 z"
         style=""
         id="path8118" />
      <path
         d="m 316.62893,432.50899 -45.47036,0 0,-14.27881 q -6.51557,8.17912 -13.16977,11.92211 -11.64485,6.51557 -26.47817,6.51557 -23.98284,0 -42.69778,-16.49687 -22.31929,-19.68534 -22.31929,-52.12456 0,-32.99374 22.87381,-52.67908 18.16042,-15.66509 41.72738,-15.66509 13.72428,0 25.78502,5.82242 6.93146,3.3271 14.2788,10.9517 l 0,-12.61525 45.47036,0 0,128.64786 z m -44.08407,-64.32393 q 0,-12.19937 -8.595,-20.65575 -8.59501,-8.595 -20.79438,-8.595 -13.58565,0 -22.31929,10.25855 -7.07009,8.31775 -7.07009,18.9922 0,10.67444 7.07009,18.99219 8.59501,10.25856 22.31929,10.25856 12.338,0 20.79438,-8.45638 8.595,-8.45638 8.595,-20.79437 z"
         style=""
         id="path8120" />
      <path
         d="m 444.445,345.86576 q -9.56541,-4.57476 -19.40808,-4.57476 -22.45792,0 -29.11212,18.29905 -2.49533,6.6542 -2.49533,17.88316 l 0,55.03578 -45.47036,0 0,-128.64786 45.47036,0 0,21.07163 q 7.20872,-11.22896 15.52647,-16.21961 11.22896,-6.6542 26.6168,-6.6542 3.60436,0 8.87226,0.41589 l 0,43.39092 z"
         style=""
         id="path8122" />
      <path
         d="m 609.96823,432.50899 -45.47036,0 0,-14.27881 q -6.51557,8.17912 -13.16977,11.92211 -11.64485,6.51557 -26.47817,6.51557 -23.98285,0 -42.69778,-16.49687 -22.3193,-19.68534 -22.3193,-52.12456 0,-32.99374 22.87382,-52.67908 18.16041,-15.66509 41.72737,-15.66509 13.72429,0 25.78502,5.82242 6.93146,3.3271 14.27881,10.9517 l 0,-92.18838 45.47036,0 0,208.22099 z m -44.08407,-64.32393 q 0,-12.19937 -8.59501,-20.65575 -8.59501,-8.595 -20.79437,-8.595 -13.58566,0 -22.3193,10.25855 -7.07008,8.31775 -7.07008,18.9922 0,10.67444 7.07008,18.99219 8.59501,10.25856 22.3193,10.25856 12.33799,0 20.79437,-8.45638 8.59501,-8.45638 8.59501,-20.79437 z"
         style=""
         id="path8124" />
    </g>
    <rect
       style="display:inline;opacity:1;fill:#ffffff;fill-opacity:1;stroke:#3a0148;stroke-width:2.65640211;stroke-linejoin:round;stroke-miterlimit:4;stroke-dasharray:none;stroke-opacity:1"
       id="rect5424"
       width="30.858767"
       height="44.812298"
       x="272.59244"
       y="162.98996"
       transform="matrix(0.89355824,-0.4489473,0.4489473,0.89355824,0,0)" />
    <g
       transform="matrix(0.01242138,-0.00650718,0.00650718,0.01242138,330.06717,31.274064)"
       id="g6"
       style="display:inline;fill:#8c28a2;fill-opacity:1">
      <title
         id="title8">Layer 1</title>
      <g
         id="svg_1"
         style="fill:#8c28a2;fill-opacity:1"
         transform="matrix(1.0198778,0,0,1.0198778,-24.44701,-7.6131752)">
        <g
           transform="matrix(35.9854,0,0,35.9854,-2550.64,-3750.97)"
           id="g2005"
           style="fill:#8c28a2;fill-opacity:1">
          <path
             inkscape:connector-curvature="0"
             style="fill:#8c28a2;fill-opacity:1;stroke:#88a3ce;stroke-width:0"
             id="path2007"
             d="m 93.22197,137.46973 c -3.4795,0.003 -5.30957,-3.70703 -6.269524,-7.41602 -0.960945,-3.71191 -1.051765,-7.42383 -1.051765,-7.42383 l -1.775391,-0.0176 c 0,0 -0.333008,14.84766 -7.290527,14.85352 l 16.387207,0.004 0,0 z" />
        </g>
        <path
           style="fill:#8c28a2;fill-opacity:1;stroke:#88a3ce;stroke-width:0"
           inkscape:connector-curvature="0"
           id="path2009"
           d="M 1015.8206,661.76733 C 1014.731,401.15457 624.5498,212.12601 509.98682,5.877621 395.45944,212.12601 5.278094,401.15457 4.171395,661.76733 3.661835,784.83435 117.41661,884.53217 257.10559,884.53217 c 139.65414,0 252.88123,-99.69782 252.88123,-222.76484 0,123.06702 113.26306,222.76484 252.95202,222.76484 139.68933,0 252.88176,-99.69782 252.88176,-222.76484 l 0,0 z" />
      </g>
    </g>
    <path
       style="display:inline;fill:#edd4f1;fill-opacity:1;fill-rule:evenodd;stroke:none;stroke-width:1px;stroke-linecap:butt;stroke-linejoin:miter;stroke-opacity:1"
       d="M 355.87249,35.284188 345.1882,57.83269 337.49499,61.524046 353.40585,30.437109 Z"
       id="path5494"
       inkscape:connector-curvature="0"
       sodipodi:nodetypes="ccccc" />
    <rect
       style="display:inline;opacity:1;fill:#ffffff;fill-opacity:1;stroke:#3a0148;stroke-width:2.65640211;stroke-linejoin:round;stroke-miterlimit:4;stroke-dasharray:none;stroke-opacity:1"
       id="rect5424-6"
       width="30.858767"
       height="44.812298"
       x="337.5574"
       y="-142.21646"
       transform="matrix(0.90218309,0.43135331,-0.43135331,0.90218309,0,0)" />
    <g
       transform="matrix(0.03344726,0.01623427,-0.01623427,0.03344726,362.51173,31.335063)"
       id="g4"
       style="display:inline;fill:#f52f35;fill-opacity:1;stroke:none">
      <title
         id="title6">Layer 1</title>
      <g
         id="layer1-0"
         style="fill:#f52f35;fill-opacity:1;stroke:none">
        <path
           style="fill:#f52f35;fill-opacity:1;stroke:none;stroke-width:18.70000076;stroke-miterlimit:4"
           inkscape:connector-curvature="0"
           stroke-miterlimit="4"
           id="path7"
           d="m 222.41571,22.145874 c -66.24001,0 -119.99995,53.76001 -119.99995,119.999996 0,134.75553 135.93315,170.08728 228.56245,303.30805 87.57422,-132.40338 228.5625,-172.85459 228.5625,-303.30805 0,-66.239986 -53.75989,-119.999996 -120,-119.999996 -48.04791,0 -89.40161,28.370422 -108.5625,69.1875 -19.1608,-40.817078 -60.5145,-69.1875 -108.5625,-69.1875 z" />
      </g>
    </g>
  </g>
  <g
     inkscape:groupmode="layer"
     id="layer11"
     inkscape:label="card 1">
    <g
       transform="matrix(0.26433039,0,0,0.26433039,470.39674,56.449005)"
       style="font-style:normal;font-variant:normal;font-weight:bold;font-stretch:normal;font-size:283.9125061px;line-height:125%;font-family:Aharoni;-inkscape-font-specification:'Aharoni, Bold';text-align:center;letter-spacing:0px;word-spacing:0px;writing-mode:lr-tb;text-anchor:middle;fill:#ffc102;fill-opacity:1;stroke:none;stroke-width:1px;stroke-linecap:butt;stroke-linejoin:miter;stroke-opacity:1"
       id="flowRoot4687-1">
      <path
         d="m 130.0352,104.95305 -40.75697,0 0,148.05594 -49.213349,0 0,-148.05594 -40.06382567,0 0,-41.172859 130.03414467,0 0,41.172859 z"
         style=""
         id="path8107" />
      <path
         d="m 243.71111,166.36576 q -9.56541,-4.57476 -19.40808,-4.57476 -22.45793,0 -29.11213,18.29905 -2.49532,6.6542 -2.49532,17.88316 l 0,55.03578 -45.47036,0 0,-128.64786 45.47036,0 0,21.07163 q 7.20871,-11.22896 15.52646,-16.21961 11.22897,-6.6542 26.6168,-6.6542 3.60436,0 8.87227,0.41589 l 0,43.39092 z"
         style=""
         id="path8109" />
      <path
         d="m 312.47117,74.870523 q 0,10.813074 -7.48598,18.299049 -7.34734,7.347348 -18.16042,7.347348 -10.67444,0 -18.16041,-7.485978 -7.34735,-7.485974 -7.34735,-18.160419 0,-10.674444 7.34735,-18.02179 7.48597,-7.485974 18.16041,-7.485974 10.67445,0 18.16042,7.485974 7.48598,7.347346 7.48598,18.02179 z m -2.91121,178.138467 -45.47037,0 0,-128.64786 45.47037,0 0,128.64786 z"
         style=""
         id="path8111" />
      <path
         d="m 437.79191,250.2364 q -14.14017,7.07009 -29.66663,7.07009 -35.21181,0 -55.86755,-23.84422 -16.6355,-19.26945 -16.6355,-44.63858 0,-25.50777 16.6355,-44.63859 20.65574,-23.84421 55.86755,-23.84421 15.80372,0 29.66663,7.20871 l 0,38.67754 q -12.06073,-8.45638 -23.56695,-8.45638 -13.58566,0 -22.45792,8.73363 -8.87227,8.73364 -8.87227,22.3193 0,13.58565 8.87227,22.31929 8.87226,8.73364 22.45792,8.73364 11.36759,0 23.56695,-8.31775 l 0,38.67753 z"
         style=""
         id="path8113" />
      <path
         d="m 623.1391,253.00899 -63.76941,0 -50.04513,-52.40182 0,52.40182 -45.47036,0 0,-208.220993 45.47036,0 0,125.875273 47.5498,-46.30214 62.38312,0 -64.46256,59.33328 68.34418,69.31458 z"
         style=""
         id="path8115" />
    </g>
    <path
       sodipodi:type="star"
       style="opacity:1;fill:#ffffff;fill-opacity:1;stroke:none;stroke-width:10;stroke-linejoin:round;stroke-miterlimit:4;stroke-dasharray:none;stroke-opacity:1"
       id="path6066-0"
       sodipodi:sides="4"
       sodipodi:cx="446.48743"
       sodipodi:cy="133.96234"
       sodipodi:r1="80.45787"
       sodipodi:r2="22.528204"
       sodipodi:arg1="0.67866249"
       sodipodi:arg2="1.4640607"
       inkscape:flatsided="false"
       inkscape:rounded="0.04"
       inkscape:randomized="0"
       d="m 509.11688,184.46997 c -1.66895,2.06949 -57.58598,-28.39086 -60.22945,-28.10763 -2.64348,0.28323 -50.83813,41.89841 -52.90763,40.22946 -2.06949,-1.66895 28.39086,-57.58598 28.10763,-60.22946 -0.28323,-2.64348 -41.89841,-50.838128 -40.22946,-52.907624 1.66895,-2.069496 57.58598,28.390854 60.22946,28.107624 2.64348,-0.28323 50.83813,-41.898403 52.90762,-40.229454 2.0695,1.668948 -28.39085,57.585974 -28.10762,60.229454 0.28323,2.64348 41.8984,50.83813 40.22945,52.90763 z"
       inkscape:transform-center-x="0.95364331"
       inkscape:transform-center-y="0.50659648"
       transform="matrix(0.12726975,-0.10269812,0.10269812,0.12726975,586.41168,98.410946)" />
    <path
       sodipodi:type="star"
       style="opacity:1;fill:#ffba03;fill-opacity:1;stroke:none;stroke-width:10;stroke-linejoin:round;stroke-miterlimit:4;stroke-dasharray:none;stroke-opacity:1"
       id="path6066-6-1"
       sodipodi:sides="4"
       sodipodi:cx="446.48743"
       sodipodi:cy="133.96234"
       sodipodi:r1="80.45787"
       sodipodi:r2="22.528204"
       sodipodi:arg1="0.67866249"
       sodipodi:arg2="1.4640607"
       inkscape:flatsided="false"
       inkscape:rounded="0.04"
       inkscape:randomized="0"
       d="m 509.11688,184.46997 c -1.66895,2.06949 -57.58598,-28.39086 -60.22945,-28.10763 -2.64348,0.28323 -50.83813,41.89841 -52.90763,40.22946 -2.06949,-1.66895 28.39086,-57.58598 28.10763,-60.22946 -0.28323,-2.64348 -41.89841,-50.838128 -40.22946,-52.907624 1.66895,-2.069496 57.58598,28.390854 60.22946,28.107624 2.64348,-0.28323 50.83813,-41.898403 52.90762,-40.229454 2.0695,1.668948 -28.39085,57.585974 -28.10762,60.229454 0.28323,2.64348 41.8984,50.83813 40.22945,52.90763 z"
       inkscape:transform-center-x="0.66334597"
       inkscape:transform-center-y="0.35239135"
       transform="matrix(0.08852929,-0.07143718,0.07143718,0.08852929,615.79873,127.48414)" />
    <path
       sodipodi:type="star"
       style="opacity:1;fill:#ffffff;fill-opacity:1;stroke:none;stroke-width:10;stroke-linejoin:round;stroke-miterlimit:4;stroke-dasharray:none;stroke-opacity:1"
       id="path6066-6-7"
       sodipodi:sides="4"
       sodipodi:cx="446.48743"
       sodipodi:cy="133.96234"
       sodipodi:r1="80.45787"
       sodipodi:r2="22.528204"
       sodipodi:arg1="0.67866249"
       sodipodi:arg2="1.4640607"
       inkscape:flatsided="false"
       inkscape:rounded="0.04"
       inkscape:randomized="0"
       d="m 509.11688,184.46997 c -1.66895,2.06949 -57.58598,-28.39086 -60.22945,-28.10763 -2.64348,0.28323 -50.83813,41.89841 -52.90763,40.22946 -2.06949,-1.66895 28.39086,-57.58598 28.10763,-60.22946 -0.28323,-2.64348 -41.89841,-50.838128 -40.22946,-52.907624 1.66895,-2.069496 57.58598,28.390854 60.22946,28.107624 2.64348,-0.28323 50.83813,-41.898403 52.90762,-40.229454 2.0695,1.668948 -28.39085,57.585974 -28.10762,60.229454 0.28323,2.64348 41.8984,50.83813 40.22945,52.90763 z"
       inkscape:transform-center-x="0.40335793"
       inkscape:transform-center-y="0.21427517"
       transform="matrix(0.05383066,-0.04343772,0.04343772,0.05383066,612.27556,108.63439)" />
  </g>
</svg>
